<svg xmlns="http://www.w3.org/2000/svg" width="1032" height="792" viewBox="0 0 1032 792">
<rect width="100%" height="100%" fill="#0b1220"/>
<polyline points="261.69,395.58 261.69,305.73 302.12,272.04 396.46,272.04" fill="none" stroke="#21354c" stroke-width="89.85" stroke-linecap="round" stroke-linejoin="round" opacity="0.45"/>
<polyline points="261.69,395.58 261.69,305.73 302.12,272.04 396.46,272.04" fill="none" stroke="#7dd3fc" stroke-width="4" stroke-linecap="round" stroke-linejoin="round"/>
<polyline points="261.64,458.45 261.38,457.54 261.55,455.22 261.27,454.24 261.04,453.09 260.85,451.66 260.77,450.00 260.79,448.15 260.78,446.02 260.77,440.85 260.77,434.40 260.78,430.67 260.78,426.61 260.78,422.22 260.78,417.50 260.77,412.44 260.77,407.07 260.76,395.33 260.76,395.33 260.90,382.84 264.43,379.46 268.01,377.37 269.90,376.54 271.34,376.47 272.38,376.69 272.85,377.09 273.43,378.04 274.57,376.22 274.90,376.38 275.55,375.93 276.11,376.50 276.06,376.38 276.52,375.83 277.73,377.07 276.32,374.63 277.46,377.13 277.53,375.49 276.10,377.08 273.84,374.80 275.45,376.28 269.92,378.47 267.74,376.19 269.93,376.08 272.55,375.59 273.23,376.80 272.67,377.43 271.05,377.63 271.50,377.17 272.31,377.07 274.31,377.93 270.06,378.01 271.91,379.35 270.50,374.82 270.50,374.82 272.99,377.31 270.90,377.86 271.93,377.24 272.83,377.26 273.75,377.56 274.30,378.45 268.83,378.80 269.82,376.59 271.09,376.34 272.16,376.54 273.13,376.94 272.39,377.50 271.75,377.56 272.52,377.40 273.96,378.24 269.53,378.57 270.70,376.69 271.79,376.55 272.92,376.82 273.52,377.37 274.42,378.24 270.23,378.91 271.23,377.00 273.78,377.32 275.09,378.35 269.82,379.38 270.65,377.02 272.24,376.73 273.12,377.09 272.03,377.58 271.25,377.48 272.07,377.18 272.59,377.33 272.48,377.74 272.65,377.91 270.15,378.32 271.30,376.87 272.35,376.82 273.59,377.15 281.70,378.93 286.67,378.76 292.43,360.20 296.06,350.86 299.78,341.54 303.60,332.26 307.52,323.02 311.56,313.81 315.39,304.75 318.76,295.95 322.48,287.30 330.94,270.48 335.68,262.34 340.75,254.40 346.13,246.67 351.82,239.17 357.81,231.90 364.09,224.88 370.65,218.13 377.48,211.64 391.90,199.53 399.47,193.92 407.26,188.63" fill="none" stroke="#ef4444" stroke-width="2.5" opacity="0.75"/>
<polyline points="261.69,459.37 260.71,456.61 261.36,455.61 261.26,454.68 261.09,453.57 260.95,452.22 260.82,450.58 260.64,448.53 260.74,446.36 260.75,443.91 260.75,441.16 260.76,434.72 260.77,431.00 260.77,426.94 260.77,422.55 260.77,417.83 260.77,412.78 260.77,407.41 260.76,401.70 260.76,395.67 260.99,383.04 264.51,379.96 266.26,377.89 267.92,376.40 270.34,376.17 271.98,376.35 272.68,376.78 274.10,377.41 272.59,375.77 274.53,377.51 270.22,378.73 270.60,377.10 271.68,376.72 272.45,376.88 272.90,377.21 272.67,377.59 272.47,377.81 270.54,378.51 271.73,377.04 273.11,377.04 273.95,377.57 274.14,378.54 268.76,378.72 269.76,376.54 271.17,376.31 272.03,376.55 273.12,376.89 274.13,377.48 274.30,378.67 268.68,379.15 269.82,376.69 271.64,376.46 272.31,376.79 273.24,377.10 274.22,377.63 272.13,378.87 272.11,377.74 271.96,376.89 273.30,377.06 271.39,377.66 272.14,377.27 273.59,377.39 275.20,378.31 270.98,379.28 269.00,377.35 271.47,376.34 272.40,376.63 273.40,377.06 273.10,377.67 272.55,378.22 272.87,377.67 270.89,377.74 271.82,377.01 272.55,377.06 273.34,377.78 273.75,378.47 268.32,378.55 269.18,376.41 270.99,376.19 271.77,376.47 272.92,376.77 273.61,377.34 274.61,378.26 270.19,379.03 272.52,376.78 273.79,377.21 275.24,378.25 270.52,379.25 270.79,377.17 272.32,376.75 273.61,377.12 271.73,377.82 272.05,377.13 272.70,377.21 272.59,377.47 272.66,377.60 272.43,377.79 272.61,377.91 270.06,378.30 271.20,376.84 272.23,376.77 273.44,377.09 272.90,377.53 274.34,378.18 281.94,380.01 285.04,380.12 287.57,371.01 290.46,362.02 293.65,353.16 297.18,344.43 305.28,327.43 309.84,319.19 314.73,311.14 319.95,303.29 325.48,295.67 331.31,288.27 337.44,281.12 343.85,274.22 350.54,267.59 357.49,261.24 372.13,249.40 379.80,243.94 387.69,238.79 395.78,233.97 404.06,229.47 412.51,225.32 421.13,221.52 438.78,214.97 438.78,214.97 447.80,212.24" fill="none" stroke="#ef4444" stroke-width="2.5" opacity="0.75"/>
<polyline points="261.70,459.37 261.50,457.94 261.47,456.57 261.55,455.61 261.24,454.46 260.87,453.24 260.89,451.92 260.85,450.37 260.78,446.43 260.77,444.00 260.77,441.26 260.77,438.20 260.78,434.81 260.78,431.08 260.78,427.02 260.78,422.62 260.78,417.90 260.77,407.47 260.77,401.76 260.76,395.73 260.76,389.36 261.01,383.08 264.52,380.04 266.07,378.15 267.76,376.48 271.94,376.35 272.69,376.74 273.96,377.20 273.91,378.01 274.50,376.57 273.43,375.30 275.35,376.31 276.82,377.09 276.08,374.86 277.57,375.09 277.05,377.55 273.88,374.57 275.54,376.17 276.73,378.58 270.69,376.85 273.26,377.05 274.23,378.01 271.63,374.47 275.65,374.77 276.30,377.84 271.87,379.01 267.91,376.09 267.91,376.09 272.25,376.87 272.47,377.31 271.75,377.21 273.13,376.72 274.80,376.53 276.47,377.01 277.88,376.98 277.26,375.25 278.86,377.17 279.15,377.60 278.19,376.06 273.59,377.20 272.42,375.30 274.14,376.08 274.96,377.58 273.14,374.88 275.65,376.61 273.36,378.91 269.08,378.20 271.35,376.38 272.59,376.63 273.40,377.13 271.90,377.71 272.03,377.51 273.02,377.51 273.53,377.91 271.16,378.69 272.32,377.29 273.49,377.87 270.85,378.63 271.33,377.27 272.40,376.99 272.83,377.26 272.26,377.65 272.24,377.70 272.93,377.77 286.42,378.69 288.62,369.46 291.16,360.36 294.57,351.35 297.75,342.44 301.21,333.68 305.03,325.07 309.19,316.63 313.69,308.35 323.69,292.39 329.16,284.73 334.94,277.29 341.02,270.10 347.38,263.15 354.02,256.47 360.93,250.07 368.09,243.95 375.49,238.13 383.12,232.61 399.02,222.53 407.27,217.98 415.69,213.76 424.28,209.90 433.02,206.38 441.89,203.22" fill="none" stroke="#ef4444" stroke-width="2.5" opacity="0.75"/>
<polyline points="261.70,459.37 261.50,457.94 261.47,456.57 261.55,455.61 261.24,454.46 260.87,453.24 260.89,451.92 260.81,448.55 260.78,446.43 260.77,444.00 260.77,441.26 260.77,438.20 260.78,434.81 260.78,431.08 260.78,427.02 260.78,417.90 260.77,412.85 260.77,407.47 260.77,401.76 260.76,395.73 260.76,389.36 261.01,383.08 264.52,380.04 266.07,378.15 267.76,376.48 270.28,376.20 271.94,376.35 272.69,376.74 273.96,377.20 274.50,376.57 273.43,375.30 275.35,376.31 276.82,377.09 276.08,374.86 277.16,377.13 277.57,375.09 277.05,377.55 273.88,374.57 275.54,376.17 270.69,376.85 273.26,377.05 274.23,378.01 271.63,374.47 273.91,376.00 275.65,374.77 276.30,377.84 271.87,379.01 270.17,376.11 272.25,376.87 272.47,377.31 271.75,377.21 273.13,376.72 274.80,376.53 276.47,377.01 277.88,376.98 277.26,375.25 278.86,377.17 279.15,377.60 278.19,376.06 273.59,377.20 272.32,377.29 270.85,378.63 272.40,376.99 272.83,377.26 272.26,377.65 272.24,377.70 280.01,379.30 286.42,378.69 288.62,369.46 291.16,360.36 294.57,351.35 297.75,342.44 301.21,333.68 305.03,325.07 309.19,316.63 313.69,308.35 323.69,292.39 329.16,284.73 334.94,277.29 341.02,270.10 347.38,263.15 354.02,256.47 360.93,250.07 368.09,243.95 375.49,238.13 390.97,227.41 399.02,222.53 407.27,217.98 415.69,213.76 424.28,209.90 433.02,206.38 441.89,203.22" fill="none" stroke="#ef4444" stroke-width="2.5" opacity="0.75"/>
<polyline points="261.71,459.37 261.52,457.93 261.56,455.60 261.24,454.46 260.87,453.25 260.89,451.93 260.84,450.38 260.81,448.56 260.78,446.44 260.77,444.01 260.77,438.22 260.77,434.82 260.78,431.09 260.78,427.03 272.21,374.94 274.68,378.86 275.68,376.33 275.58,375.44 277.82,377.64 277.22,378.28 274.07,377.66 271.59,376.64 272.35,373.51 274.61,375.96 276.66,376.32 277.10,376.23 277.97,377.59 278.16,374.07 278.94,378.82 273.03,375.16 275.06,376.56 275.65,375.66 276.66,376.32 278.00,377.26 275.88,374.16 277.50,376.47 277.10,379.96 274.18,377.13 273.26,371.97 277.37,380.23 272.77,376.52 280.12,378.53 290.67,374.76 310.99,366.34 318.16,361.69 322.26,360.64 328.35,359.11 332.90,358.65 344.81,380.45" fill="none" stroke="#ef4444" stroke-width="2.5" opacity="0.75"/>
<polyline points="261.69,459.37 261.16,457.93 260.71,456.61 261.36,455.61 261.26,454.68 261.09,453.57 260.82,450.58 260.64,448.53 260.74,446.36 260.75,443.91 260.75,441.16 260.75,438.10 260.76,434.72 260.77,431.00 260.77,426.94 274.53,377.51 270.60,377.10 271.68,376.72 272.45,376.88 272.90,377.21 272.67,377.59 272.47,377.81 270.54,378.51 271.73,377.04 273.11,377.04 273.95,377.57 268.76,378.72 269.76,376.54 271.17,376.31 272.03,376.55 273.12,376.89 274.13,377.48 274.30,378.67 268.68,379.15 269.82,376.69 272.31,376.79 273.24,377.10 274.22,377.63 272.13,378.87 272.11,377.74 270.68,377.53 271.96,376.89 273.30,377.06 272.14,377.27 273.59,377.39 275.20,378.31 270.98,379.28 269.00,377.35 270.41,376.29 271.47,376.34 272.40,376.63 273.40,377.06 273.10,377.67 272.87,377.67 270.89,377.74 271.82,377.01 272.55,377.06 273.16,377.33 273.34,377.78 273.75,378.47 271.06,377.53 272.05,377.13 272.59,377.47 272.66,377.60 309.84,319.19 438.78,214.97 621.27,231.67" fill="none" stroke="#ef4444" stroke-width="2.5" opacity="0.75"/>
<polyline points="261.62,458.64 261.44,457.90 261.51,455.61 260.98,453.33 260.76,451.87 260.80,448.46 260.78,446.33 260.76,441.16 260.77,438.11 260.77,434.72 260.77,430.99 260.78,426.93 260.78,422.53 260.78,417.81 260.77,412.76 260.77,401.68 260.76,395.64 260.76,389.28 260.98,383.03 264.51,379.92 266.45,377.80 268.08,376.37 272.10,376.37 272.10,376.37 274.10,377.30 273.68,378.32 274.95,375.20 276.52,376.37 275.23,378.93 269.68,379.09 270.42,376.88 271.44,376.63 272.83,376.77 273.52,378.33 273.08,378.26 269.15,378.10 270.26,376.49 271.74,376.40 273.01,376.76 274.17,377.36 275.55,378.54 270.27,379.53 270.93,376.39 271.73,376.53 272.70,376.79 273.88,377.25 275.15,378.26 269.31,379.20 270.51,376.80 272.09,376.59 272.39,377.59 272.13,377.65 272.81,377.64 273.55,377.94 270.02,378.75 271.18,376.94 272.32,376.80 273.49,377.14 270.63,377.87 271.62,377.17 271.65,377.41 335.31,290.26 355.09,270.11 369.58,258.07 377.17,252.50 393.01,242.31 401.23,237.71 409.62,233.44 418.18,229.52 426.90,225.95 435.75,222.73 444.73,219.88 453.81,217.39" fill="none" stroke="#ef4444" stroke-width="2.5" opacity="0.75"/>
<polyline points="261.71,459.37 261.52,457.93 261.50,456.45 261.13,455.43 261.26,454.25 261.20,451.78 260.72,450.28 260.63,448.43 260.93,446.25 260.89,443.78 260.82,441.06 260.83,438.02 260.78,434.63 260.77,430.91 260.77,422.46 260.77,417.74 260.77,412.69 260.77,407.31 260.76,401.60 260.76,395.57 260.76,389.21 260.96,382.98 264.50,379.81 268.41,376.38 270.50,376.21 270.50,376.21 271.67,376.39 272.34,376.72 274.28,377.74 268.67,378.91 269.41,376.60 271.03,376.34 271.03,376.34 273.00,376.83 273.22,377.37 273.85,377.81 268.98,378.31 271.68,376.44 273.99,377.39 271.52,378.47 271.78,377.28 274.00,377.52 268.48,379.11 269.41,376.59 270.94,376.27 271.78,376.48 272.62,376.78 273.12,377.21 274.09,377.63 269.04,378.77 270.07,376.67 271.83,376.50 272.47,376.86 272.94,377.19 274.02,377.59 274.66,378.73 269.14,379.15 270.26,376.78 272.74,376.94 272.82,377.35 271.41,377.65 272.19,377.31 272.51,377.43 272.88,377.57 273.17,377.85 272.56,378.43 270.38,377.76 272.37,376.91 272.58,377.20 271.20,377.49 271.99,377.15 273.02,377.28 274.13,377.79 271.13,378.98 270.02,377.56 271.51,376.73 273.21,377.29 274.24,377.77 273.51,379.00 282.81,380.73 285.86,380.87 288.60,371.83 291.69,362.92 298.84,345.50 302.94,337.02 307.38,328.71 312.15,320.59 317.25,312.67 322.67,304.97 328.39,297.49 334.42,290.25 340.73,283.26 354.18,270.08 361.29,263.90 368.65,258.03 376.24,252.45 384.05,247.19 392.07,242.25 400.28,237.64 408.67,233.36 417.23,229.43 434.79,222.62 443.76,219.76 452.84,217.27 462.02,215.14" fill="none" stroke="#ef4444" stroke-width="2.5" opacity="0.75"/>
<polyline points="261.57,458.64 261.37,457.68 261.17,456.35 261.57,455.32 261.27,454.32 261.04,453.16 260.82,451.71 260.80,450.08 260.80,448.24 260.77,443.68 260.77,440.94 260.77,437.88 260.77,434.49 260.78,430.76 260.78,426.70 260.78,422.30 260.78,417.58 260.77,412.53 260.77,401.44 260.76,395.41 260.76,389.04 277.11,376.54 275.48,374.39 272.97,377.93 268.83,378.14 271.48,376.28 272.39,376.63 272.86,377.05 273.08,377.53 274.07,377.98 271.34,379.13 270.24,377.54 271.43,376.71 272.74,376.80 272.95,378.00 273.03,378.45 268.18,378.20 268.96,376.32 270.87,376.17 272.12,376.44 272.64,376.88 273.33,377.25 274.34,377.77 269.15,378.19 270.01,376.57 271.80,376.46 272.65,376.83 273.68,377.25 272.35,377.98 272.32,378.11 272.07,377.60 273.36,377.37 270.39,379.14 271.53,377.13 272.85,377.00 273.58,377.44 273.84,378.22 271.91,378.43 269.68,377.45 270.74,376.50 272.18,376.50 273.30,377.66 273.86,378.35 269.25,378.72 270.58,376.70 272.11,376.60 271.63,376.40 275.09,378.22 285.75,380.76 288.41,371.70 294.78,353.98 298.49,345.32 302.54,336.82 306.94,328.49 311.67,320.35 316.73,312.41 322.11,304.67 327.79,297.16 340.05,282.87 346.61,276.11 353.43,269.62 360.51,263.41 367.84,257.49 375.40,251.88 383.19,246.58 391.18,241.59 399.37,236.94 407.74,232.62 416.28,228.65 433.80,221.75 442.76,218.84 451.83,216.30 460.99,214.13" fill="none" stroke="#ef4444" stroke-width="2.5" opacity="0.75"/>
<polyline points="261.69,459.37 261.16,457.93 260.71,456.52 261.14,454.33 261.09,453.15 260.99,451.81 260.91,450.18 261.02,448.31 261.06,446.16 260.92,443.72 260.86,440.98 260.80,437.90 260.79,430.76 260.78,426.69 260.78,422.29 260.78,417.57 260.78,412.51 260.77,407.13 260.77,401.42 268.44,379.17 274.17,377.59 268.87,376.52 273.13,378.35 270.32,376.54 272.05,376.52 273.11,377.29 273.33,378.98 269.46,376.32 272.06,376.07 272.05,377.86 273.36,377.68 272.43,378.44 272.07,377.69 271.62,377.40 272.31,377.12 272.86,377.26 273.75,377.55 275.08,378.45 270.44,377.05 272.08,376.66 272.90,377.00 274.02,377.44 270.30,377.08 272.15,377.12 271.55,374.91 273.95,376.02 274.46,377.61 271.71,378.93 271.44,377.63 271.75,377.22 272.52,377.11 275.32,378.34 271.14,379.34 268.61,377.42 269.89,376.22 271.27,376.23 272.38,376.55 272.98,377.01 272.34,377.46 271.57,377.50 271.94,377.37 272.45,377.28 273.15,377.43 274.28,377.85 272.51,379.09 269.06,376.64 272.20,378.20 272.66,377.29 273.77,377.49 274.07,378.34 269.67,376.49 271.38,376.27 272.06,376.60 273.34,376.93 273.84,378.73 268.65,378.93 269.86,376.63 271.62,376.45 273.02,376.77 273.51,377.39 274.23,378.24 270.39,378.79 271.39,377.03 272.48,377.41 272.57,377.53 273.84,377.72 273.79,378.76 269.11,378.63 270.25,376.64 271.91,376.51 272.94,376.88 272.52,377.40 273.98,377.96 271.53,379.07 270.16,377.58 271.36,376.70 272.69,376.77 273.80,377.25 272.54,378.25 271.86,377.59 272.95,377.26 273.61,378.71 268.69,378.47 269.69,376.48 271.27,376.29 271.98,376.58 273.29,376.89 273.89,377.55 272.14,378.58 272.16,377.57 272.27,377.16 271.97,377.35 271.51,377.36 272.20,377.20 272.95,377.39 284.20,380.03 378.30,258.68 393.80,247.99 401.87,243.13 418.56,234.41 427.16,230.56 435.90,227.07 444.78,223.93 462.89,218.75" fill="none" stroke="#ef4444" stroke-width="2.5" opacity="0.75"/>
<polyline points="261.70,459.37 260.66,456.62 261.38,455.39 261.09,453.14 260.89,451.70 260.75,449.98 260.80,448.10 260.79,445.95 260.77,443.51 260.77,437.70 260.77,434.31 260.78,430.58 260.78,426.52 260.78,422.12 260.78,417.40 260.77,412.35 260.77,406.97 260.77,401.26 260.76,395.23 260.89,382.78 264.41,379.33 268.38,377.28 270.55,376.59 271.70,376.58 272.88,376.83 272.61,377.35 272.59,377.32 273.48,378.60 274.18,374.81 276.05,376.40 273.85,379.01 268.85,378.43 269.82,376.50 271.11,376.33 272.06,376.55 273.26,376.91 274.22,378.32 271.24,378.71 270.45,377.29 271.86,376.68 272.54,376.92 272.84,377.25 272.60,377.56 269.95,376.58 272.56,376.73 273.00,377.17 274.16,378.39 272.10,375.16 275.06,377.95 274.81,372.86 276.01,376.69 269.58,375.38 272.44,378.20 271.61,373.25 273.75,379.09 268.13,377.62 269.97,375.69 271.86,377.09 273.09,376.04 273.92,376.66 269.40,375.26 271.69,375.61 273.26,376.86 274.63,372.93 277.48,378.07 271.66,378.37 266.52,377.11 269.14,376.35 269.14,376.35 271.75,375.76 274.28,374.18 276.36,375.22 278.79,374.85 280.39,377.83 281.64,371.07 288.63,357.05 293.30,348.87 298.31,340.89 303.63,333.12 309.26,325.58 315.20,318.26 321.42,311.20 327.93,304.39 334.71,297.85 347.82,293.00" fill="none" stroke="#22c55e" stroke-width="2.5" opacity="0.75"/>
<polyline points="261.70,459.37 261.50,457.94 261.44,456.51 261.10,455.65 260.76,395.91 264.51,380.22 273.43,377.16 272.16,377.71 273.17,377.71 272.85,378.37 303.92,314.39 421.31,197.32" fill="none" stroke="#ef4444" stroke-width="2.5" opacity="0.75"/>
<polyline points="261.63,458.50 261.36,457.57 261.36,455.48 261.01,453.43 260.82,451.99 260.79,450.35 260.79,448.51 260.78,446.39 260.77,443.96 260.76,441.22 260.77,438.16 260.78,431.04 260.78,426.98 260.78,422.59 260.78,417.87 260.77,412.81 260.77,407.44 260.77,401.73 260.76,395.70 260.76,389.33 264.52,380.00 266.17,378.01 267.84,376.43 270.31,376.18 271.96,376.35 272.70,376.76 273.98,377.21 274.15,378.02 273.05,376.51 266.69,379.80 267.25,377.50 269.70,376.22 271.69,375.63 273.46,374.46 275.47,373.88 277.44,373.80 279.13,374.72 281.56,375.56 288.02,360.62 292.13,355.58 296.98,347.51 302.16,339.64 307.65,331.99 313.44,324.56 406.62,276.09" fill="none" stroke="#22c55e" stroke-width="2.5" opacity="0.75"/>
<polyline points="261.57,458.64 261.17,456.35 261.57,455.32 261.27,454.32 260.82,451.71 260.80,450.08 260.80,448.24 260.78,446.11 260.77,443.68 260.77,440.94 260.77,437.88 260.78,430.76 260.78,426.70 260.78,422.30 260.78,417.58 260.77,412.53 260.77,407.15 260.76,395.41 260.76,389.04 260.92,382.89 264.46,379.58 267.60,377.47 269.29,376.49 270.93,376.37 271.76,376.55 272.61,376.82 272.95,377.59 273.45,377.91 272.80,376.84 274.73,378.07 271.60,377.61 268.22,376.49 270.14,376.31 272.60,375.84 272.49,378.27 272.00,377.60 272.86,377.32 273.92,377.59 274.57,378.54 268.47,378.98 269.40,376.55 270.98,376.25 272.79,377.04 273.94,377.68 272.51,377.31 274.25,377.95 270.96,376.76 271.76,377.42 270.89,376.23 271.19,379.08 271.97,376.60 273.96,377.74 271.36,378.75 273.67,377.49 307.23,328.99 317.17,312.99 328.38,297.86 334.44,290.65 340.78,283.69 347.40,276.99 354.29,270.57 368.82,258.58 376.43,253.04 384.27,247.82 392.31,242.91 400.54,238.34 408.95,234.10 426.26,226.67 435.12,223.49 444.10,220.67 453.20,218.21 462.38,216.13" fill="none" stroke="#ef4444" stroke-width="2.5" opacity="0.75"/>
<polyline points="261.71,459.37 261.50,456.45 261.13,455.43 261.26,454.25 261.19,453.17 261.20,451.78 260.72,450.28 260.93,446.25 260.89,443.78 260.82,441.06 260.83,438.02 260.78,434.63 260.77,430.91 260.77,426.85 260.77,422.46 260.77,417.74 260.77,407.31 260.76,401.60 260.76,395.57 260.76,389.21 260.96,382.98 264.50,379.81 266.79,377.66 268.41,376.38 270.50,376.21 272.34,376.72 273.55,377.06 274.28,377.74 268.67,378.91 270.75,376.70 271.91,376.51 272.77,377.51 273.11,378.86 273.88,378.82 273.17,377.85 271.64,376.82 272.58,377.20 271.20,377.49 271.95,377.21 312.15,320.59 328.39,297.49 462.02,215.14" fill="none" stroke="#ef4444" stroke-width="2.5" opacity="0.75"/>
<polyline points="261.63,458.44 261.19,456.26 261.52,455.19 260.76,395.26 270.58,376.80 272.64,377.58 270.17,376.62 273.78,377.54 272.28,377.45 273.77,377.73 273.50,377.40 271.36,377.96 271.28,376.74 272.62,376.79 268.94,379.04 270.13,376.65 271.77,376.44 269.00,379.14 271.86,376.54 272.54,376.89 273.30,377.29 272.69,377.29 275.19,378.52 269.83,379.36 272.99,377.09 272.23,376.67 272.01,377.77 274.39,377.91 274.15,375.84 268.91,376.46 270.22,377.98 272.59,376.28 274.39,378.39 273.85,376.35 274.63,378.11 280.91,375.19 285.77,360.67 289.74,355.43 294.45,347.27 404.54,271.07 405.42,274.01 402.87,280.72 403.28,286.31 403.72,282.61 403.06,285.94 403.43,282.45 403.74,281.85 403.02,285.99 402.81,282.50 403.87,282.60 403.02,282.91 520.86,358.58" fill="none" stroke="#ef4444" stroke-width="2.5" opacity="0.75"/>
<polyline points="261.59,458.64 260.77,412.51 260.76,395.40 277.01,376.78 267.68,376.86 270.18,376.27 274.73,378.68 272.75,377.39 273.25,377.57 302.45,337.20 311.70,320.80 434.60,223.16 443.58,220.32 452.67,217.85 452.67,217.85 608.85,233.47" fill="none" stroke="#ef4444" stroke-width="2.5" opacity="0.75"/>
<polyline points="261.71,459.37 260.77,412.86 260.77,401.78 276.51,376.32 277.78,377.45 271.22,374.41 268.25,377.61 269.32,373.55 272.05,376.72 277.10,376.23 278.16,374.07 290.67,374.76 310.99,366.34 318.16,361.69 432.36,386.22" fill="none" stroke="#ef4444" stroke-width="2.5" opacity="0.75"/>
<polyline points="261.57,458.64 261.37,457.68 260.77,407.18 260.77,401.47 273.62,377.65 271.82,378.17 271.68,376.82 272.37,376.91 269.24,378.17 271.41,376.41 272.56,376.65 299.14,346.00 307.89,329.33 427.71,227.94 445.61,222.07 610.74,236.82" fill="none" stroke="#ef4444" stroke-width="2.5" opacity="0.75"/>
<polyline points="261.63,458.44 260.77,412.76 260.76,395.65 294.60,368.71 305.96,357.07 312.94,352.05 321.65,350.43 329.42,345.11 337.40,340.11 347.61,334.93 365.41,327.55 374.17,324.15 383.06,321.02 392.06,318.25 401.00,315.87 403.76,314.13 404.49,313.64 404.76,314.81 404.95,316.11 405.17,317.81 405.42,319.68 405.71,321.79 406.06,324.12 406.77,338.04 412.22,350.58" fill="none" stroke="#ef4444" stroke-width="2.5" opacity="0.75"/>
<circle cx="261.69" cy="395.58" r="8" fill="#38bdf8"/>
<circle cx="396.46" cy="272.04" r="10" fill="#22c55e"/>
<text x="273.69" y="383.58" font-family="monospace" font-size="20" fill="#e2e8f0">A</text>
<text x="408.46" y="260.04" font-family="monospace" font-size="20" fill="#e2e8f0">B</text>
<text x="28" y="36" font-family="monospace" font-size="24" fill="#f8fafc">A→B KPI trajectories</text>
<text x="28" y="64" font-family="monospace" font-size="16" fill="#94a3b8">corridor.width=0.40m, oob.threshold=0.35m</text>
</svg>